<?xml version="1.0" ?><!DOCTYPE svg  PUBLIC '-//W3C//DTD SVG 1.1//EN'  'http://www.w3.org/Graphics/SVG/1.1/DTD/svg11.dtd'><svg enable-background="new 0 0 512 512" height="512px" id="Layer_1" version="1.1" viewBox="0 0 512 512" width="512px" xml:space="preserve" xmlns="http://www.w3.org/2000/svg" xmlns:xlink="http://www.w3.org/1999/xlink"><path d="M491.924,442.611c0,34.171-27.702,61.872-61.873,61.872H80.308c-34.171,0-61.874-27.701-61.874-61.872  V92.866c0-34.171,27.703-61.873,61.874-61.873h349.743c34.171,0,61.873,27.701,61.873,61.873V442.611z" fill="#106327"/><path d="M491.924,417.867c0,34.172-27.702,61.873-61.873,61.873H80.308c-34.171,0-61.874-27.701-61.874-61.873  V68.122c0-34.171,27.703-61.872,61.874-61.872h349.743c34.171,0,61.873,27.7,61.873,61.872V417.867z" fill="#29B54C"/><path d="M491.924,417.867V237.779c-7.605-7.598-13.281-13.253-16.047-15.978c-16.795-16.538-33.207-33.463-50-50  c-16.762-16.505-33.193-33.346-49.903-49.903c-7.433-7.366-17.229-12.155-27.618-13.438c-9.351-1.155-18.971,0.49-27.38,4.746  c-7.821,3.96-14.483,10.095-19.081,17.56c-2.322,3.772-4.113,7.869-5.301,12.138c-0.607,2.184-1.057,4.413-1.346,6.662  c-0.297,2.319-0.592,4.823-0.319,7.155c0.192,1.641,0.494,1.55-0.665,2.13c-0.937,0.468-1.873,0.936-2.809,1.404  c-3.471,1.734-6.941,3.469-10.41,5.203c-10.794,5.395-21.587,10.79-32.38,16.185c-11.098,5.547-22.195,11.095-33.292,16.642  c-5.603,2.8-11.206,5.601-16.808,8.401c-0.389,0.194-1.964-1.434-2.338-1.714c-2.114-1.586-4.353-3.007-6.692-4.235  c-4.769-2.505-9.956-4.199-15.292-4.941c-9.36-1.301-19.067,0.312-27.524,4.519c-16.155,8.036-26.559,24.974-26.436,43.013  c0.072,10.58,3.73,20.959,10.316,29.239c3.464,4.356,7.699,8.134,11.627,12.063c4.165,4.166,8.278,8.394,12.504,12.497  c4.107,4.223,8.332,8.337,12.496,12.503s8.278,8.394,12.504,12.497c4.107,4.223,8.332,8.337,12.496,12.503  s8.278,8.394,12.504,12.497c4.107,4.223,8.332,8.337,12.496,12.503s8.278,8.394,12.504,12.497  c4.107,4.223,8.332,8.337,12.496,12.503s8.278,8.394,12.504,12.497c4.106,4.223,8.331,8.337,12.496,12.503  c2.332,2.333,38.203,38.24,70.063,70.111h92.762C464.222,479.74,491.924,452.039,491.924,417.867z" fill="#1C843E"/><path d="M215.496,242.995c0,0.923-0.211,1.794-0.264,2.715l96.67,48.32  c8.27-7.011,18.867-11.384,30.564-11.384c26.295,0,47.607,21.314,47.607,47.609c0,26.323-21.313,47.638-47.607,47.638  c-26.322,0-47.607-21.314-47.607-47.638c0-0.948,0.211-1.79,0.264-2.713l-96.67-48.32c-8.299,6.983-18.867,11.354-30.561,11.354  c-26.295,0-47.611-21.288-47.611-47.582c0-26.321,21.316-47.638,47.611-47.638c11.693,0,22.262,4.402,30.561,11.384l96.67-48.32  c-0.053-0.923-0.264-1.792-0.264-2.742c0-26.268,21.285-47.58,47.607-47.58c26.295,0,47.607,21.313,47.607,47.58  c0,26.321-21.313,47.639-47.607,47.639c-11.723,0-22.295-4.402-30.564-11.409l-96.67,48.348  C215.285,241.176,215.496,242.048,215.496,242.995z" fill="#FFFFFF" id="ShareThis_4_"/></svg>